# xmcd
# Track frame offsets:
# 150
# 13433
# 32610
# 48826
# 64662
# 78656
# 96255
# 109594
# 124618
# 139410
# 156370
# 173259
# 193241
#
# Disc length: 2802 seconds
# Revision: 0
# Processed by: cddbd v1.5.2PL0 Copyright (c) Steve Scherf et al.
# Submitted via: VisiTrax 2.11.3.279 - For more info visit www.synapsa.com
#
DISCID=ad0af00d
DTITLE=Various Artist - CRS No. 203  Country Radio Singles
DYEAR=2017
DGENRE=
TTITLE0=Burns. Ian - My Kind of Beautiful
TTITLE1=Cook, Tony - That's Country
TTITLE2=Jnee, Emma - Fakin'It Just Makin'It
TTITLE3=Cheers, Steve - A Glass Half Full
TTITLE4=Poulton, Amber Joy - Best Liar in Town
TTITLE5=Cummings, Kelvin - Get Back Up
TTITLE6=Destiny - Streets of Old Kilsyth
TTITLE7=Curtain, Tom - Territory Time
TTITLE8=Kennedy, Kerry - Takin' Time
TTITLE9=Russell, Michelle - Your Restless Heart
TTITLE10=Back, Lloyd - Travelling With You
TTITLE11=Picerno, Annemarie - Bonfire
TTITLE12=Phegan, Danny - From Where I Stand
EXTD=
EXTT0=
EXTT1=
EXTT2=
EXTT3=
EXTT4=
EXTT5=
EXTT6=
EXTT7=
EXTT8=
EXTT9=
EXTT10=
EXTT11=
EXTT12=
PLAYORDER=
